<?xml version='1.0' encoding='utf-8'?>
<COLLADA xmlns="http://www.collada.org/2005/11/COLLADASchema" version="1.4.1">
  <asset>
    <created>2026-10-07T00:00:00Z</created>
    <modified>2026-10-07T00:00:00Z</modified>
    <unit name="meter" meter="1" />
    <up_axis>Z_UP</up_axis>
  </asset>
  <library_images>
    <image id="tile_image">
      <init_from>sand.png</init_from>
    </image>
  </library_images>
  <library_effects>
    <effect id="tile_effect">
      <profile_COMMON>
        <newparam sid="tile_surface">
          <surface type="2D">
            <init_from>tile_image</init_from>
          </surface>
        </newparam>
        <newparam sid="tile_sampler">
          <sampler2D>
            <source>tile_surface</source>
            <wrap_s>WRAP</wrap_s>
            <wrap_t>WRAP</wrap_t>
          </sampler2D>
        </newparam>
        <technique sid="common">
          <phong>
            <ambient>
              <color>0.45 0.45 0.45 1</color>
            </ambient>
            <diffuse>
              <texture texture="tile_sampler" texcoord="UVMap" />
            </diffuse>
            <specular>
              <color>0.015 0.015 0.015 1</color>
            </specular>
            <shininess>
              <float>1</float>
            </shininess>
          </phong>
        </technique>
      </profile_COMMON>
    </effect>
  </library_effects>
  <library_materials>
    <material id="tile_material" name="Pool Ceramic">
      <instance_effect url="#tile_effect" />
    </material>
  </library_materials>
  <library_geometries>
    <geometry id="surface">
      <mesh>
        <source id="positions">
          <float_array id="positions_array" count="507">-9.00000000 -8.00000000 -3.97377334 -7.50000000 -8.00000000 -3.98329625 -6.00000000 -8.00000000 -3.98534280 -4.50000000 -8.00000000 -3.97240895 -3.00000000 -8.00000000 -3.95862280 -1.50000000 -8.00000000 -3.96026347 0.00000000 -8.00000000 -3.97311106 1.50000000 -8.00000000 -3.97866920 3.00000000 -8.00000000 -3.97041168 4.50000000 -8.00000000 -3.96285707 6.00000000 -8.00000000 -3.97063467 7.50000000 -8.00000000 -3.98725173 9.00000000 -8.00000000 -3.99371312 -9.00000000 -6.66666667 -3.98313482 -7.50000000 -6.66666667 -3.99497033 -6.00000000 -6.66666667 -3.99325353 -4.50000000 -6.66666667 -3.97792016 -3.00000000 -6.66666667 -3.96699358 -1.50000000 -6.66666667 -3.97152059 0.00000000 -6.66666667 -3.98048692 1.50000000 -6.66666667 -3.97701407 3.00000000 -6.66666667 -3.96281114 4.50000000 -6.66666667 -3.95616483 6.00000000 -6.66666667 -3.96626298 7.50000000 -6.66666667 -3.98020493 9.00000000 -6.66666667 -3.98110114 -9.00000000 -5.33333333 -3.98285454 -7.50000000 -5.33333333 -3.99552364 -6.00000000 -5.33333333 -3.99200707 -4.50000000 -5.33333333 -3.97947960 -3.00000000 -5.33333333 -3.97631336 -1.50000000 -5.33333333 -3.98596501 0.00000000 -5.33333333 -3.99220972 1.50000000 -5.33333333 -3.98245841 3.00000000 -5.33333333 -3.96607598 4.50000000 -5.33333333 -3.96168214 6.00000000 -5.33333333 -3.97135634 7.50000000 -5.33333333 -3.97822281 9.00000000 -5.33333333 -3.97076958 -9.00000000 -4.00000000 -3.97716100 -7.50000000 -4.00000000 -3.98608328 -6.00000000 -4.00000000 -3.97994407 -4.50000000 -4.00000000 -3.97205704 -3.00000000 -4.00000000 -3.97790176 -1.50000000 -4.00000000 -3.99263744 0.00000000 -4.00000000 -3.99752112 1.50000000 -4.00000000 -3.98619237 3.00000000 -4.00000000 -3.97361422 4.50000000 -4.00000000 -3.97501031 6.00000000 -4.00000000 -3.98462635 7.50000000 -4.00000000 -3.98436800 9.00000000 -4.00000000 -3.97001341 -9.00000000 -2.66666667 -3.97576479 -7.50000000 -2.66666667 -3.97646685 -6.00000000 -2.66666667 -3.96574587 -4.50000000 -2.66666667 -3.96105961 -3.00000000 -2.66666667 -3.97258548 -1.50000000 -2.66666667 -3.99502529 0.00000000 -2.66666667 -3.99806906 1.50000000 -2.66666667 -3.99208688 3.00000000 -2.66666667 -3.97567443 4.50000000 -2.66666667 -3.98511407 6.00000000 -2.66666667 -3.99591086 7.50000000 -2.66666667 -3.99161631 9.00000000 -2.66666667 -3.97566564 -9.00000000 -1.33333333 -3.98313311 -7.50000000 -1.33333333 -3.97502170 -6.00000000 -1.33333333 -3.96013850 -4.50000000 -1.33333333 -3.95714784 -3.00000000 -1.33333333 -3.98355019 -1.50000000 -1.33333333 -3.99900000 0.00000000 -1.33333333 -3.99900000 1.50000000 -1.33333333 -3.99900000 3.00000000 -1.33333333 -3.98374747 4.50000000 -1.33333333 -3.98523887 6.00000000 -1.33333333 -3.99604277 7.50000000 -1.33333333 -3.99023938 9.00000000 -1.33333333 -3.97807973 -9.00000000 0.00000000 -3.99332894 -7.50000000 0.00000000 -3.98028056 -6.00000000 0.00000000 -3.96551180 -4.50000000 0.00000000 -3.96534089 -3.00000000 0.00000000 -3.99120549 -1.50000000 0.00000000 -3.99900000 0.00000000 0.00000000 -3.99900000 1.50000000 0.00000000 -3.99900000 3.00000000 0.00000000 -3.98711581 4.50000000 0.00000000 -3.97923254 6.00000000 0.00000000 -3.98587972 7.50000000 0.00000000 -3.97826348 9.00000000 0.00000000 -3.97178505 -9.00000000 1.33333333 -3.99584793 -7.50000000 1.33333333 -3.98300953 -6.00000000 1.33333333 -3.97405954 -4.50000000 1.33333333 -3.97965243 -3.00000000 1.33333333 -3.99352201 -1.50000000 1.33333333 -3.99900000 0.00000000 1.33333333 -3.99900000 1.50000000 1.33333333 -3.99900000 3.00000000 1.33333333 -3.98166487 4.50000000 1.33333333 -3.97685394 6.00000000 1.33333333 -3.97523916 7.50000000 1.33333333 -3.96411935 9.00000000 1.33333333 -3.96167634 -9.00000000 2.66666667 -3.98647232 -7.50000000 2.66666667 -3.97643584 -6.00000000 2.66666667 -3.97625392 -4.50000000 2.66666667 -3.98883448 -3.00000000 2.66666667 -3.99750038 -1.50000000 2.66666667 -3.99544601 0.00000000 2.66666667 -3.99622723 1.50000000 2.66666667 -3.98806084 3.00000000 2.66666667 -3.97827825 4.50000000 2.66666667 -3.98304685 6.00000000 2.66666667 -3.97287173 7.50000000 2.66666667 -3.95863401 9.00000000 2.66666667 -3.95824232 -9.00000000 4.00000000 -3.97192093 -7.50000000 4.00000000 -3.96395876 -6.00000000 4.00000000 -3.97082017 -4.50000000 4.00000000 -3.98737051 -3.00000000 4.00000000 -3.99462644 -1.50000000 4.00000000 -3.98608237 0.00000000 4.00000000 -3.97644477 1.50000000 4.00000000 -3.98045985 3.00000000 4.00000000 -3.99187854 4.50000000 4.00000000 -3.99238313 6.00000000 4.00000000 -3.97781747 7.50000000 4.00000000 -3.96451738 9.00000000 4.00000000 -3.96671460 -9.00000000 5.33333333 -3.96343594 -7.50000000 5.33333333 -3.95624416 -6.00000000 5.33333333 -3.96587635 -4.50000000 5.33333333 -3.98046594 -3.00000000 5.33333333 -3.98250699 -1.50000000 5.33333333 -3.97325394 0.00000000 5.33333333 -3.97041248 1.50000000 5.33333333 -3.98246161 3.00000000 5.33333333 -3.99606811 4.50000000 5.33333333 -3.99450008 6.00000000 5.33333333 -3.98100931 7.50000000 5.33333333 -3.97409142 9.00000000 5.33333333 -3.98135725 -9.00000000 6.66666667 -3.96584124 -7.50000000 6.66666667 -3.96059763 -6.00000000 6.66666667 -3.97009176 -4.50000000 6.66666667 -3.97800432 -3.00000000 6.66666667 -3.97171486 -1.50000000 6.66666667 -3.96036547 0.00000000 6.66666667 -3.96187701 1.50000000 6.66666667 -3.97731955 3.00000000 6.66666667 -3.98898429 4.50000000 6.66666667 -3.98494187 6.00000000 6.66666667 -3.97535649 7.50000000 6.66666667 -3.97751459 9.00000000 6.66666667 -3.99085510 -9.00000000 8.00000000 -3.97326306 -7.50000000 8.00000000 -3.97353136 -6.00000000 8.00000000 -3.98308571 -4.50000000 8.00000000 -3.98383644 -3.00000000 8.00000000 -3.97019169 -1.50000000 8.00000000 -3.95756157 0.00000000 8.00000000 -3.96102524 1.50000000 8.00000000 -3.97432502 3.00000000 8.00000000 -3.97890655 4.50000000 8.00000000 -3.97017290 6.00000000 8.00000000 -3.96375543 7.50000000 8.00000000 -3.97294680 9.00000000 8.00000000 -3.98932695</float_array>
          <technique_common>
            <accessor source="#positions_array" count="169" stride="3">
              <param name="X" type="float" />
              <param name="Y" type="float" />
              <param name="Z" type="float" />
            </accessor>
          </technique_common>
        </source>
        <source id="uv">
          <float_array id="uv_array" count="338">0.00000000 0.00000000 1.50000000 0.00000000 3.00000000 0.00000000 4.50000000 0.00000000 6.00000000 0.00000000 7.50000000 0.00000000 9.00000000 0.00000000 10.50000000 0.00000000 12.00000000 0.00000000 13.50000000 0.00000000 15.00000000 0.00000000 16.50000000 0.00000000 18.00000000 0.00000000 0.00000000 1.33333333 1.50000000 1.33333333 3.00000000 1.33333333 4.50000000 1.33333333 6.00000000 1.33333333 7.50000000 1.33333333 9.00000000 1.33333333 10.50000000 1.33333333 12.00000000 1.33333333 13.50000000 1.33333333 15.00000000 1.33333333 16.50000000 1.33333333 18.00000000 1.33333333 0.00000000 2.66666667 1.50000000 2.66666667 3.00000000 2.66666667 4.50000000 2.66666667 6.00000000 2.66666667 7.50000000 2.66666667 9.00000000 2.66666667 10.50000000 2.66666667 12.00000000 2.66666667 13.50000000 2.66666667 15.00000000 2.66666667 16.50000000 2.66666667 18.00000000 2.66666667 0.00000000 4.00000000 1.50000000 4.00000000 3.00000000 4.00000000 4.50000000 4.00000000 6.00000000 4.00000000 7.50000000 4.00000000 9.00000000 4.00000000 10.50000000 4.00000000 12.00000000 4.00000000 13.50000000 4.00000000 15.00000000 4.00000000 16.50000000 4.00000000 18.00000000 4.00000000 0.00000000 5.33333333 1.50000000 5.33333333 3.00000000 5.33333333 4.50000000 5.33333333 6.00000000 5.33333333 7.50000000 5.33333333 9.00000000 5.33333333 10.50000000 5.33333333 12.00000000 5.33333333 13.50000000 5.33333333 15.00000000 5.33333333 16.50000000 5.33333333 18.00000000 5.33333333 0.00000000 6.66666667 1.50000000 6.66666667 3.00000000 6.66666667 4.50000000 6.66666667 6.00000000 6.66666667 7.50000000 6.66666667 9.00000000 6.66666667 10.50000000 6.66666667 12.00000000 6.66666667 13.50000000 6.66666667 15.00000000 6.66666667 16.50000000 6.66666667 18.00000000 6.66666667 0.00000000 8.00000000 1.50000000 8.00000000 3.00000000 8.00000000 4.50000000 8.00000000 6.00000000 8.00000000 7.50000000 8.00000000 9.00000000 8.00000000 10.50000000 8.00000000 12.00000000 8.00000000 13.50000000 8.00000000 15.00000000 8.00000000 16.50000000 8.00000000 18.00000000 8.00000000 0.00000000 9.33333333 1.50000000 9.33333333 3.00000000 9.33333333 4.50000000 9.33333333 6.00000000 9.33333333 7.50000000 9.33333333 9.00000000 9.33333333 10.50000000 9.33333333 12.00000000 9.33333333 13.50000000 9.33333333 15.00000000 9.33333333 16.50000000 9.33333333 18.00000000 9.33333333 0.00000000 10.66666667 1.50000000 10.66666667 3.00000000 10.66666667 4.50000000 10.66666667 6.00000000 10.66666667 7.50000000 10.66666667 9.00000000 10.66666667 10.50000000 10.66666667 12.00000000 10.66666667 13.50000000 10.66666667 15.00000000 10.66666667 16.50000000 10.66666667 18.00000000 10.66666667 0.00000000 12.00000000 1.50000000 12.00000000 3.00000000 12.00000000 4.50000000 12.00000000 6.00000000 12.00000000 7.50000000 12.00000000 9.00000000 12.00000000 10.50000000 12.00000000 12.00000000 12.00000000 13.50000000 12.00000000 15.00000000 12.00000000 16.50000000 12.00000000 18.00000000 12.00000000 0.00000000 13.33333333 1.50000000 13.33333333 3.00000000 13.33333333 4.50000000 13.33333333 6.00000000 13.33333333 7.50000000 13.33333333 9.00000000 13.33333333 10.50000000 13.33333333 12.00000000 13.33333333 13.50000000 13.33333333 15.00000000 13.33333333 16.50000000 13.33333333 18.00000000 13.33333333 0.00000000 14.66666667 1.50000000 14.66666667 3.00000000 14.66666667 4.50000000 14.66666667 6.00000000 14.66666667 7.50000000 14.66666667 9.00000000 14.66666667 10.50000000 14.66666667 12.00000000 14.66666667 13.50000000 14.66666667 15.00000000 14.66666667 16.50000000 14.66666667 18.00000000 14.66666667 0.00000000 16.00000000 1.50000000 16.00000000 3.00000000 16.00000000 4.50000000 16.00000000 6.00000000 16.00000000 7.50000000 16.00000000 9.00000000 16.00000000 10.50000000 16.00000000 12.00000000 16.00000000 13.50000000 16.00000000 15.00000000 16.00000000 16.50000000 16.00000000 18.00000000 16.00000000</float_array>
          <technique_common>
            <accessor source="#uv_array" count="169" stride="2">
              <param name="S" type="float" />
              <param name="T" type="float" />
            </accessor>
          </technique_common>
        </source>
        <source id="normals"><float_array id="normals_array" count="507">0.00717673 0.00782302 0.99994365 0.00318225 0.00810240 0.99996211 -0.00405882 0.00551667 0.99997655 -0.00839402 0.00462926 0.99995405 -0.00353117 0.00677862 0.99997079 0.00413389 0.00776927 0.99996127 0.00451738 0.00396517 0.99998194 -0.00196475 -0.00227268 0.99999549 -0.00510786 -0.00554269 0.99997159 0.00049001 -0.00461658 0.99998922 0.00765205 -0.00374267 0.99996372 0.00669541 -0.00625030 0.99995805 0.00430736 -0.00945847 0.99994599 0.00803935 0.00354993 0.99996138 0.00300444 0.00422840 0.99998655 -0.00509474 0.00306877 0.99998231 -0.00784299 0.00353260 0.99996300 -0.00193025 0.00683024 0.99997481 0.00399530 0.00915118 0.99995015 0.00161634 0.00695389 0.99997452 -0.00527811 0.00201521 0.99998404 -0.00621529 -0.00091482 0.99998027 0.00103124 -0.00055613 0.99999931 0.00717156 -0.00054430 0.99997414 0.00443767 -0.00387798 0.99998263 0.00159432 -0.00763816 0.99996956 0.00777460 -0.00289007 0.99996560 0.00274114 -0.00363229 0.99998965 -0.00477103 -0.00443227 0.99997880 -0.00467537 -0.00166043 0.99998769 0.00192202 0.00385838 0.99999071 0.00471772 0.00735593 0.99996182 -0.00106635 0.00648683 0.99997839 -0.00780777 0.00431624 0.99996020 -0.00621129 0.00474223 0.99996947 0.00155306 0.00686634 0.99997522 0.00491325 0.00630482 0.99996805 -0.00018000 0.00157625 0.99999874 -0.00347314 -0.00270943 0.99999030 0.00447554 -0.00408456 0.99998164 0.00085291 -0.00721851 0.99997358 -0.00415363 -0.00934235 0.99994773 -0.00058748 -0.00681707 0.99997659 0.00674286 -0.00151131 0.99997612 0.00591943 0.00279700 0.99997857 -0.00154750 0.00277900 0.99999494 -0.00817079 0.00341479 0.99996079 -0.00334756 0.00396709 0.99998653 0.00325771 0.00838684 0.99995952 0.00276276 0.00886248 0.99995691 -0.00437559 0.00550199 0.99997529 -0.00833307 0.00303304 0.99996068 -0.00111075 0.00071063 0.99999913 -0.00297609 -0.00379605 0.99998837 -0.00457334 -0.00688230 0.99996586 0.00332549 -0.00457815 0.99998399 0.01018615 0.00101906 0.99994760 0.00753135 0.00145374 0.99997058 -0.00027886 0.00123304 0.99999920 -0.00783948 0.00443953 0.99995942 -0.00269248 0.00344303 0.99999045 0.00602555 0.00313857 0.99997692 0.00192642 0.00404771 0.99998995 -0.00604705 0.00288055 0.99997757 -0.01034724 0.00330157 0.99994102 -0.00629177 0.00572992 0.99996379 -0.00686500 0.00220446 0.99997401 -0.00533238 0.00051778 0.99998565 0.00760267 0.00141165 0.99997010 0.01193144 0.00502792 0.99991618 0.00577567 0.00209667 0.99998112 0.00027262 0.00061311 0.99999977 -0.00531804 0.00236559 0.99998306 -0.00553039 0.00337670 0.99997901 0.00443797 -0.00187669 0.99998839 0.00150375 -0.00391938 0.99999119 -0.00534354 -0.00438351 0.99997612 -0.00878519 -0.00211278 0.99995918 -0.00866088 0.00480413 0.99995095 -0.00830862 0.00392818 0.99995777 -0.00447366 0.00571023 0.99997369 0.00723679 0.00715393 0.99994822 0.01105911 0.00358483 0.99993242 0.00328378 0.00066397 0.99999439 0.00000000 0.00000000 1.00000000 -0.00444950 -0.00047276 0.99998999 -0.00661552 -0.00080663 0.99997779 -0.00031239 -0.00304782 0.99999531 -0.00026446 -0.00774444 0.99996998 -0.00417422 -0.00928727 0.99994816 -0.00533643 -0.00713654 0.99996030 -0.00805674 -0.00208503 0.99996537 -0.00649613 -0.00069947 0.99997866 -0.00101434 0.00412965 0.99999096 0.00550491 0.00785846 0.99995397 0.00684855 0.00274746 0.99997277 0.00210344 -0.00106405 0.99999722 -0.00073143 -0.00174810 0.99999820 -0.00510164 -0.00344701 0.99998105 -0.00603551 -0.00201036 0.99997977 -0.00318379 0.00042137 0.99999484 -0.00378402 -0.00443173 0.99998302 -0.00402324 -0.00687892 0.99996825 -0.00235148 -0.00577838 0.99998054 -0.00631907 -0.00861221 0.99994295 -0.00302611 -0.00677596 0.99997246 0.00370302 -0.00163096 0.99999181 0.00632984 0.00216584 0.99997762 0.00208859 0.00030258 0.99999777 -0.00068285 -0.00509435 0.99998679 -0.00144070 -0.00746884 0.99997107 -0.00335256 -0.00440521 0.99998468 -0.00272956 0.00280502 0.99999234 -0.00305335 0.00461165 0.99998470 -0.00728667 0.00179062 0.99997185 -0.00436514 0.00064422 0.99999027 -0.00062859 0.00153346 0.99999863 -0.00516986 -0.00850460 0.99995047 -0.00030448 -0.00751117 0.99997174 0.00699709 -0.00467242 0.99996460 0.00711242 -0.00393469 0.99996697 -0.00036656 -0.00556149 0.99998447 -0.00487042 -0.00716938 0.99996244 -0.00022144 -0.00807937 0.99996734 0.00424939 -0.00296646 0.99998657 0.00188985 0.00465238 0.99998739 -0.00420861 0.00475787 0.99997982 -0.00832330 0.00398581 0.99995742 -0.00333079 0.00615465 0.99997551 0.00100101 0.00821866 0.99996573 -0.00444548 -0.00194190 0.99998823 0.00073207 -0.00133917 0.99999884 0.00722746 -0.00109256 0.99997328 0.00497284 -0.00406476 0.99997937 -0.00212454 -0.00832103 0.99996312 -0.00357793 -0.00920432 0.99995124 0.00276436 -0.00575795 0.99997960 0.00765811 -0.00204280 0.99996859 0.00359507 -0.00148966 0.99999243 -0.00448400 -0.00227188 0.99998737 -0.00608611 -0.00022888 0.99998145 0.00008840 0.00484723 0.99998825 0.00393581 0.00817303 0.99995885 -0.00250834 0.00464128 0.99998608 0.00124766 0.00631868 0.99997926 0.00517300 0.00584408 0.99996954 0.00048026 0.00120510 0.99999916 -0.00524808 -0.00400666 0.99997820 -0.00291654 -0.00553325 0.99998044 0.00506928 -0.00408348 0.99997881 0.00809702 -0.00395977 0.99995938 0.00229442 -0.00667386 0.99997510 -0.00403705 -0.00863286 0.99995459 -0.00219550 -0.00619876 0.99997838 0.00462543 -0.00095281 0.99998885 0.00780524 0.00193475 0.99996767 0.00017887 0.00556628 0.99998449 0.00228678 0.00874375 0.99995916 0.00342396 0.00973450 0.99994676 -0.00301487 0.00561640 0.99997968 -0.00744046 0.00013354 0.99997231 -0.00282595 -0.00188075 0.99999424 0.00523797 -0.00097746 0.99998580 0.00634411 -0.00187416 0.99997812 -0.00011518 -0.00632942 0.99997996 -0.00420977 -0.01026230 0.99993848 0.00035713 -0.00924997 0.99995715 0.00726352 -0.00464580 0.99996283 0.00983056 -0.00220055 0.99994926</float_array><technique_common><accessor source="#normals_array" count="169" stride="3"><param name="X" type="float" /><param name="Y" type="float" /><param name="Z" type="float" /></accessor></technique_common></source><vertices id="vertices">
          <input semantic="POSITION" source="#positions" />
        </vertices>
        <triangles count="288" material="tile_symbol">
          <input semantic="VERTEX" source="#vertices" offset="0" />
          <input semantic="TEXCOORD" source="#uv" offset="2" set="0" />
          <p>0 0 0 1 1 1 14 14 14 0 0 0 14 14 14 13 13 13 1 1 1 2 2 2 15 15 15 1 1 1 15 15 15 14 14 14 2 2 2 3 3 3 16 16 16 2 2 2 16 16 16 15 15 15 3 3 3 4 4 4 17 17 17 3 3 3 17 17 17 16 16 16 4 4 4 5 5 5 18 18 18 4 4 4 18 18 18 17 17 17 5 5 5 6 6 6 19 19 19 5 5 5 19 19 19 18 18 18 6 6 6 7 7 7 20 20 20 6 6 6 20 20 20 19 19 19 7 7 7 8 8 8 21 21 21 7 7 7 21 21 21 20 20 20 8 8 8 9 9 9 22 22 22 8 8 8 22 22 22 21 21 21 9 9 9 10 10 10 23 23 23 9 9 9 23 23 23 22 22 22 10 10 10 11 11 11 24 24 24 10 10 10 24 24 24 23 23 23 11 11 11 12 12 12 25 25 25 11 11 11 25 25 25 24 24 24 13 13 13 14 14 14 27 27 27 13 13 13 27 27 27 26 26 26 14 14 14 15 15 15 28 28 28 14 14 14 28 28 28 27 27 27 15 15 15 16 16 16 29 29 29 15 15 15 29 29 29 28 28 28 16 16 16 17 17 17 30 30 30 16 16 16 30 30 30 29 29 29 17 17 17 18 18 18 31 31 31 17 17 17 31 31 31 30 30 30 18 18 18 19 19 19 32 32 32 18 18 18 32 32 32 31 31 31 19 19 19 20 20 20 33 33 33 19 19 19 33 33 33 32 32 32 20 20 20 21 21 21 34 34 34 20 20 20 34 34 34 33 33 33 21 21 21 22 22 22 35 35 35 21 21 21 35 35 35 34 34 34 22 22 22 23 23 23 36 36 36 22 22 22 36 36 36 35 35 35 23 23 23 24 24 24 37 37 37 23 23 23 37 37 37 36 36 36 24 24 24 25 25 25 38 38 38 24 24 24 38 38 38 37 37 37 26 26 26 27 27 27 40 40 40 26 26 26 40 40 40 39 39 39 27 27 27 28 28 28 41 41 41 27 27 27 41 41 41 40 40 40 28 28 28 29 29 29 42 42 42 28 28 28 42 42 42 41 41 41 29 29 29 30 30 30 43 43 43 29 29 29 43 43 43 42 42 42 30 30 30 31 31 31 44 44 44 30 30 30 44 44 44 43 43 43 31 31 31 32 32 32 45 45 45 31 31 31 45 45 45 44 44 44 32 32 32 33 33 33 46 46 46 32 32 32 46 46 46 45 45 45 33 33 33 34 34 34 47 47 47 33 33 33 47 47 47 46 46 46 34 34 34 35 35 35 48 48 48 34 34 34 48 48 48 47 47 47 35 35 35 36 36 36 49 49 49 35 35 35 49 49 49 48 48 48 36 36 36 37 37 37 50 50 50 36 36 36 50 50 50 49 49 49 37 37 37 38 38 38 51 51 51 37 37 37 51 51 51 50 50 50 39 39 39 40 40 40 53 53 53 39 39 39 53 53 53 52 52 52 40 40 40 41 41 41 54 54 54 40 40 40 54 54 54 53 53 53 41 41 41 42 42 42 55 55 55 41 41 41 55 55 55 54 54 54 42 42 42 43 43 43 56 56 56 42 42 42 56 56 56 55 55 55 43 43 43 44 44 44 57 57 57 43 43 43 57 57 57 56 56 56 44 44 44 45 45 45 58 58 58 44 44 44 58 58 58 57 57 57 45 45 45 46 46 46 59 59 59 45 45 45 59 59 59 58 58 58 46 46 46 47 47 47 60 60 60 46 46 46 60 60 60 59 59 59 47 47 47 48 48 48 61 61 61 47 47 47 61 61 61 60 60 60 48 48 48 49 49 49 62 62 62 48 48 48 62 62 62 61 61 61 49 49 49 50 50 50 63 63 63 49 49 49 63 63 63 62 62 62 50 50 50 51 51 51 64 64 64 50 50 50 64 64 64 63 63 63 52 52 52 53 53 53 66 66 66 52 52 52 66 66 66 65 65 65 53 53 53 54 54 54 67 67 67 53 53 53 67 67 67 66 66 66 54 54 54 55 55 55 68 68 68 54 54 54 68 68 68 67 67 67 55 55 55 56 56 56 69 69 69 55 55 55 69 69 69 68 68 68 56 56 56 57 57 57 70 70 70 56 56 56 70 70 70 69 69 69 57 57 57 58 58 58 71 71 71 57 57 57 71 71 71 70 70 70 58 58 58 59 59 59 72 72 72 58 58 58 72 72 72 71 71 71 59 59 59 60 60 60 73 73 73 59 59 59 73 73 73 72 72 72 60 60 60 61 61 61 74 74 74 60 60 60 74 74 74 73 73 73 61 61 61 62 62 62 75 75 75 61 61 61 75 75 75 74 74 74 62 62 62 63 63 63 76 76 76 62 62 62 76 76 76 75 75 75 63 63 63 64 64 64 77 77 77 63 63 63 77 77 77 76 76 76 65 65 65 66 66 66 79 79 79 65 65 65 79 79 79 78 78 78 66 66 66 67 67 67 80 80 80 66 66 66 80 80 80 79 79 79 67 67 67 68 68 68 81 81 81 67 67 67 81 81 81 80 80 80 68 68 68 69 69 69 82 82 82 68 68 68 82 82 82 81 81 81 69 69 69 70 70 70 83 83 83 69 69 69 83 83 83 82 82 82 70 70 70 71 71 71 84 84 84 70 70 70 84 84 84 83 83 83 71 71 71 72 72 72 85 85 85 71 71 71 85 85 85 84 84 84 72 72 72 73 73 73 86 86 86 72 72 72 86 86 86 85 85 85 73 73 73 74 74 74 87 87 87 73 73 73 87 87 87 86 86 86 74 74 74 75 75 75 88 88 88 74 74 74 88 88 88 87 87 87 75 75 75 76 76 76 89 89 89 75 75 75 89 89 89 88 88 88 76 76 76 77 77 77 90 90 90 76 76 76 90 90 90 89 89 89 78 78 78 79 79 79 92 92 92 78 78 78 92 92 92 91 91 91 79 79 79 80 80 80 93 93 93 79 79 79 93 93 93 92 92 92 80 80 80 81 81 81 94 94 94 80 80 80 94 94 94 93 93 93 81 81 81 82 82 82 95 95 95 81 81 81 95 95 95 94 94 94 82 82 82 83 83 83 96 96 96 82 82 82 96 96 96 95 95 95 83 83 83 84 84 84 97 97 97 83 83 83 97 97 97 96 96 96 84 84 84 85 85 85 98 98 98 84 84 84 98 98 98 97 97 97 85 85 85 86 86 86 99 99 99 85 85 85 99 99 99 98 98 98 86 86 86 87 87 87 100 100 100 86 86 86 100 100 100 99 99 99 87 87 87 88 88 88 101 101 101 87 87 87 101 101 101 100 100 100 88 88 88 89 89 89 102 102 102 88 88 88 102 102 102 101 101 101 89 89 89 90 90 90 103 103 103 89 89 89 103 103 103 102 102 102 91 91 91 92 92 92 105 105 105 91 91 91 105 105 105 104 104 104 92 92 92 93 93 93 106 106 106 92 92 92 106 106 106 105 105 105 93 93 93 94 94 94 107 107 107 93 93 93 107 107 107 106 106 106 94 94 94 95 95 95 108 108 108 94 94 94 108 108 108 107 107 107 95 95 95 96 96 96 109 109 109 95 95 95 109 109 109 108 108 108 96 96 96 97 97 97 110 110 110 96 96 96 110 110 110 109 109 109 97 97 97 98 98 98 111 111 111 97 97 97 111 111 111 110 110 110 98 98 98 99 99 99 112 112 112 98 98 98 112 112 112 111 111 111 99 99 99 100 100 100 113 113 113 99 99 99 113 113 113 112 112 112 100 100 100 101 101 101 114 114 114 100 100 100 114 114 114 113 113 113 101 101 101 102 102 102 115 115 115 101 101 101 115 115 115 114 114 114 102 102 102 103 103 103 116 116 116 102 102 102 116 116 116 115 115 115 104 104 104 105 105 105 118 118 118 104 104 104 118 118 118 117 117 117 105 105 105 106 106 106 119 119 119 105 105 105 119 119 119 118 118 118 106 106 106 107 107 107 120 120 120 106 106 106 120 120 120 119 119 119 107 107 107 108 108 108 121 121 121 107 107 107 121 121 121 120 120 120 108 108 108 109 109 109 122 122 122 108 108 108 122 122 122 121 121 121 109 109 109 110 110 110 123 123 123 109 109 109 123 123 123 122 122 122 110 110 110 111 111 111 124 124 124 110 110 110 124 124 124 123 123 123 111 111 111 112 112 112 125 125 125 111 111 111 125 125 125 124 124 124 112 112 112 113 113 113 126 126 126 112 112 112 126 126 126 125 125 125 113 113 113 114 114 114 127 127 127 113 113 113 127 127 127 126 126 126 114 114 114 115 115 115 128 128 128 114 114 114 128 128 128 127 127 127 115 115 115 116 116 116 129 129 129 115 115 115 129 129 129 128 128 128 117 117 117 118 118 118 131 131 131 117 117 117 131 131 131 130 130 130 118 118 118 119 119 119 132 132 132 118 118 118 132 132 132 131 131 131 119 119 119 120 120 120 133 133 133 119 119 119 133 133 133 132 132 132 120 120 120 121 121 121 134 134 134 120 120 120 134 134 134 133 133 133 121 121 121 122 122 122 135 135 135 121 121 121 135 135 135 134 134 134 122 122 122 123 123 123 136 136 136 122 122 122 136 136 136 135 135 135 123 123 123 124 124 124 137 137 137 123 123 123 137 137 137 136 136 136 124 124 124 125 125 125 138 138 138 124 124 124 138 138 138 137 137 137 125 125 125 126 126 126 139 139 139 125 125 125 139 139 139 138 138 138 126 126 126 127 127 127 140 140 140 126 126 126 140 140 140 139 139 139 127 127 127 128 128 128 141 141 141 127 127 127 141 141 141 140 140 140 128 128 128 129 129 129 142 142 142 128 128 128 142 142 142 141 141 141 130 130 130 131 131 131 144 144 144 130 130 130 144 144 144 143 143 143 131 131 131 132 132 132 145 145 145 131 131 131 145 145 145 144 144 144 132 132 132 133 133 133 146 146 146 132 132 132 146 146 146 145 145 145 133 133 133 134 134 134 147 147 147 133 133 133 147 147 147 146 146 146 134 134 134 135 135 135 148 148 148 134 134 134 148 148 148 147 147 147 135 135 135 136 136 136 149 149 149 135 135 135 149 149 149 148 148 148 136 136 136 137 137 137 150 150 150 136 136 136 150 150 150 149 149 149 137 137 137 138 138 138 151 151 151 137 137 137 151 151 151 150 150 150 138 138 138 139 139 139 152 152 152 138 138 138 152 152 152 151 151 151 139 139 139 140 140 140 153 153 153 139 139 139 153 153 153 152 152 152 140 140 140 141 141 141 154 154 154 140 140 140 154 154 154 153 153 153 141 141 141 142 142 142 155 155 155 141 141 141 155 155 155 154 154 154 143 143 143 144 144 144 157 157 157 143 143 143 157 157 157 156 156 156 144 144 144 145 145 145 158 158 158 144 144 144 158 158 158 157 157 157 145 145 145 146 146 146 159 159 159 145 145 145 159 159 159 158 158 158 146 146 146 147 147 147 160 160 160 146 146 146 160 160 160 159 159 159 147 147 147 148 148 148 161 161 161 147 147 147 161 161 161 160 160 160 148 148 148 149 149 149 162 162 162 148 148 148 162 162 162 161 161 161 149 149 149 150 150 150 163 163 163 149 149 149 163 163 163 162 162 162 150 150 150 151 151 151 164 164 164 150 150 150 164 164 164 163 163 163 151 151 151 152 152 152 165 165 165 151 151 151 165 165 165 164 164 164 152 152 152 153 153 153 166 166 166 152 152 152 166 166 166 165 165 165 153 153 153 154 154 154 167 167 167 153 153 153 167 167 167 166 166 166 154 154 154 155 155 155 168 168 168 154 154 154 168 168 168 167 167 167</p>
        <input semantic="NORMAL" source="#normals" offset="1" /></triangles>
      </mesh>
    </geometry>
  </library_geometries>
  <library_visual_scenes>
    <visual_scene id="scene">
      <node id="surface_node">
        <instance_geometry url="#surface">
          <bind_material>
            <technique_common>
              <instance_material symbol="tile_symbol" target="#tile_material">
                <bind_vertex_input semantic="UVMap" input_semantic="TEXCOORD" input_set="0" />
              </instance_material>
            </technique_common>
          </bind_material>
        </instance_geometry>
      </node>
    </visual_scene>
  </library_visual_scenes>
  <scene>
    <instance_visual_scene url="#scene" />
  </scene>
</COLLADA>